# Blender v2.79 (sub 0) OBJ File: ''
# www.blender.org
mtllib suitpart_leg006.mtl
o suitpart_leg006_suitpart_leg006.001
v 4.174469 1.608281 -11.297748
v 4.190795 1.691218 -10.985658
v 4.159728 1.678307 -11.032895
v 4.210632 1.596968 -11.342101
v 4.231410 1.702523 -10.944884
v 4.139410 1.664319 -11.084767
v 4.148489 1.621186 -11.247868
v 4.255589 1.587685 -11.379201
v 4.307587 1.580793 -11.407646
v 4.280007 1.711818 -10.912130
v 4.364658 1.576542 -11.426319
v 4.334731 1.718704 -10.888662
v 4.424594 1.575107 -11.434515
v 4.393467 1.722957 -10.875372
v 4.485096 1.576542 -11.431927
v 4.453962 1.724393 -10.872774
v 4.543842 1.580793 -11.418634
v 4.513898 1.722957 -10.880969
v 4.130608 1.649745 -11.139283
v 4.133675 1.635184 -11.194360
v 4.667925 1.702523 -10.965191
v 4.647164 1.596968 -11.362402
v 4.687775 1.608281 -11.321621
v 4.704094 1.691220 -11.009539
v 4.718833 1.621186 -11.274401
v 4.598560 1.587685 -11.395160
v 4.570974 1.718705 -10.899652
v 4.622983 1.711804 -10.928088
v 4.730074 1.678307 -11.059429
v 4.739163 1.635184 -11.222523
v 4.747953 1.649745 -11.168005
v 4.744886 1.664319 -11.112936
v 6.749439 -0.163866 -7.103333
v 6.888285 0.262437 -6.912098
v 4.575939 -0.165040 -6.744882
v 7.860528 -0.162800 -8.517833
v 8.146054 -0.159350 -11.196200
v 8.372102 0.267229 -11.260528
v 8.068746 0.263568 -8.414922
v 7.307650 3.417186 -8.914357
v 6.202614 3.260908 -7.494997
v 6.757872 3.562798 -9.243372
v 5.878033 3.438372 -8.113269
v 6.279547 3.063703 -9.737123
v 5.594547 2.966816 -8.857268
v 4.445133 2.886143 -8.735421
v 4.401687 3.334748 -7.956762
v 4.348380 3.130762 -7.298425
v 4.579051 0.261195 -6.531260
v 2.713043 -0.165176 -7.715093
v 2.557793 3.189051 -8.197528
v 2.599851 0.261041 -7.562058
v 2.976013 3.381160 -8.672626
v 1.782296 -0.162152 -9.601916
v 1.610996 0.264253 -9.566694
v 1.687006 3.671250 -9.968351
v 2.282686 3.765095 -10.082570
v 2.795373 3.221195 -10.390484
v 3.335165 2.922269 -9.292766
v 6.419181 3.552161 -11.327340
v 6.937222 4.190196 -11.285895
v 7.532900 4.205172 -11.479679
v 3.256184 4.862345 -12.818120
v 3.553290 4.075467 -12.520253
v 4.797433 4.127089 -12.740376
v 2.880312 3.706161 -11.507742
v 6.710612 4.785161 -13.095757
v 7.494778 0.267604 -13.052831
v 4.916713 5.132650 -13.759176
v 5.163768 0.267604 -13.800829
v 2.909675 5.049356 -13.404082
v 3.024345 0.267603 -13.414392
v 1.832809 0.267274 -11.598001
v 1.824028 4.453605 -11.770701
v 2.391783 4.388008 -11.517612
v 4.854207 4.928657 -13.100842
v 5.909443 3.911689 -12.329122
v 6.282506 4.651987 -12.572617
v 1.991074 -0.159312 -11.513844
v 3.112596 -0.158996 -13.223488
v 5.126275 -0.158997 -13.587213
v 7.320290 -0.158997 -12.883175
v 3.718001 5.929477 -9.146057
v 4.388323 6.273219 -9.514919
v 3.843052 6.123236 -9.698547
v 4.543378 6.236789 -10.185702
v 5.021329 6.243905 -9.835644
v 4.004620 6.123884 -10.213637
v 3.349243 5.702535 -10.121030
v 3.154063 5.421345 -9.486413
v 3.143109 4.740939 -9.168409
v 3.583589 5.143557 -8.624689
v 3.425187 4.148961 -9.077910
v 3.743308 4.297915 -8.635821
v 3.511915 3.808952 -9.528568
v 4.001909 3.760862 -8.978934
v 3.965912 3.533548 -9.794794
v 4.148411 3.542727 -9.347342
v 3.986746 0.861884 -9.952755
v 4.226017 0.862697 -9.262466
v 4.553663 0.752525 -9.964956
v 4.475872 0.862211 -10.340002
v 4.171712 3.535645 -10.194716
v 4.725827 3.536968 -10.354977
v 5.510801 5.964271 -10.123199
v 4.846871 6.041324 -10.612798
v 3.902815 5.761982 -10.751952
v 3.336888 5.116011 -10.667606
v 3.026399 4.974820 -9.911618
v 3.101438 4.320300 -9.924575
v 3.649685 3.731652 -10.060642
v 4.071087 3.769576 -10.628169
v 4.948351 3.823333 -10.763729
v 5.177343 3.529489 -9.921493
v 5.528131 3.802699 -10.307251
v 3.441305 4.309193 -10.633026
v 5.831319 5.499379 -10.418458
v 5.638044 4.999009 -10.891658
v 5.057726 5.436900 -11.060919
v 5.533288 3.738926 -9.513124
v 5.799451 4.290502 -10.523585
v 5.303053 4.584339 -11.064337
v 4.326315 4.134150 -11.023781
v 3.929518 4.670873 -11.130016
v 4.731230 4.572145 -11.221888
v 4.372757 5.421767 -11.128005
v 4.959808 5.404505 -8.429320
v 4.483804 5.909735 -8.746702
v 4.129476 5.423653 -8.445614
v 5.432958 5.459978 -8.678180
v 5.051108 6.081023 -9.096352
v 5.881438 5.585617 -9.361274
v 5.505625 5.988841 -9.449095
v 6.165396 5.025503 -9.907748
v 4.833509 3.524542 -9.241124
v 4.939117 0.862474 -9.293576
v 5.194958 0.861621 -9.769119
v 4.508906 3.519243 -9.196516
v 4.566892 3.932921 -8.627483
v 4.479213 4.597794 -8.290786
v 4.977874 0.862411 -10.202179
v 4.601920 0.738580 -9.623424
v 5.122677 3.535714 -9.494313
v 5.234155 4.091310 -8.651215
v 5.316407 4.715186 -8.468755
v 5.646434 4.038782 -9.064137
v 6.037155 4.286970 -9.650748
v 5.903531 4.856901 -8.933937
vt 0.086647 -0.041174
vt 0.086647 -0.041174
vt 0.086647 -0.041174
vt 0.086647 -0.041174
vt 0.086647 -0.041174
vt 0.086647 -0.041174
vt 0.086647 -0.041174
vt 0.086647 -0.041174
vt 0.086647 -0.041174
vt 0.086647 -0.041174
vt 0.086647 -0.041174
vt 0.086647 -0.041174
vt 0.086647 -0.041174
vt 0.086647 -0.041174
vt 0.086647 -0.041174
vt 0.086647 -0.041174
vt 0.086647 -0.041174
vt 0.086647 -0.041174
vt 0.086647 -0.041174
vt 0.086647 -0.041174
vt 0.086647 -0.041174
vt 0.086647 -0.041174
vt 0.086647 -0.041174
vt 0.086647 -0.041174
vt 0.086647 -0.041174
vt 0.086647 -0.041174
vt 0.086647 -0.041174
vt 0.086647 -0.041174
vt 0.086647 -0.041174
vt 0.086647 -0.041174
vt 0.086647 -0.041174
vt 0.086647 -0.041174
vt 0.471864 -0.973909
vt 0.471864 -0.973909
vt 0.447067 -0.973909
vt 0.493641 -0.973909
vt 0.526929 -0.973909
vt 0.526929 -0.973909
vt 0.493641 -0.973909
vt 0.497086 -0.928798
vt 0.472462 -0.928798
vt 0.497086 -0.928798
vt 0.472462 -0.928798
vt 0.497086 -0.928798
vt 0.472462 -0.928798
vt 0.448006 -0.928798
vt 0.448006 -0.928798
vt 0.448006 -0.928798
vt 0.447067 -0.973909
vt 0.424217 -0.973909
vt 0.423312 -0.928798
vt 0.424217 -0.973909
vt 0.423312 -0.928798
vt 0.400766 -0.973909
vt 0.400766 -0.973909
vt 0.401604 -0.928798
vt 0.401604 -0.928798
vt 0.401604 -0.928798
vt 0.423312 -0.928798
vt 0.532722 -0.928798
vt 0.532722 -0.928798
vt 0.532722 -0.928798
vt 0.649344 -0.928798
vt 0.600842 -0.928798
vt 0.600842 -0.928798
vt 0.577813 -0.928798
vt 0.625173 -0.928798
vt 0.555864 -0.928798
vt 0.550060 -0.973909
vt 0.577813 -0.928798
vt 0.577461 -0.973909
vt 0.600842 -0.928798
vt 0.601780 -0.973909
vt 0.627037 -0.973909
vt 0.625173 -0.928798
vt 0.625173 -0.928798
vt 0.577813 -0.928798
vt 0.555864 -0.928798
vt 0.555864 -0.928798
vt 0.649344 -0.928798
vt 0.649344 -0.928798
vt 0.651134 -0.973909
vt 0.651134 -0.973909
vt 0.627037 -0.973909
vt 0.601780 -0.973909
vt 0.577461 -0.973909
vt 0.550060 -0.973909
vt 0.086647 -0.041174
vt 0.086647 -0.041174
vt 0.086647 -0.041174
vt 0.086647 -0.041174
vt 0.086647 -0.041174
vt 0.086647 -0.041174
vt 0.086647 -0.041174
vt 0.086647 -0.041174
vt 0.086647 -0.041174
vt 0.086647 -0.041174
vt 0.086647 -0.041174
vt 0.086647 -0.041174
vt 0.086647 -0.041174
vt 0.086647 -0.041174
vt 0.086647 -0.041174
vt 0.086647 -0.041174
vt 0.086647 -0.041174
vt 0.086647 -0.041174
vt 0.086647 -0.041174
vt 0.086647 -0.041174
vt 0.086647 -0.041174
vt 0.086647 -0.041174
vt 0.086647 -0.041174
vt 0.086647 -0.041174
vt 0.086647 -0.041174
vt 0.086647 -0.041174
vt 0.086647 -0.041174
vt 0.086647 -0.041174
vt 0.086647 -0.041174
vt 0.086647 -0.041174
vt 0.086647 -0.041174
vt 0.086647 -0.041174
vt 0.086647 -0.041174
vt 0.086647 -0.041174
vt 0.086647 -0.041174
vt 0.086647 -0.041174
vt 0.086647 -0.041174
vt 0.086647 -0.041174
vt 0.086647 -0.041174
vt 0.086647 -0.041174
vt 0.086647 -0.041174
vt 0.086647 -0.041174
vt 0.086647 -0.041174
vt 0.086647 -0.041174
vt 0.086647 -0.041174
vt 0.086647 -0.041174
vt 0.086647 -0.041174
vt 0.086647 -0.041174
vt 0.086647 -0.041174
vt 0.086647 -0.041174
vt 0.086647 -0.041174
vt 0.086647 -0.041174
vt 0.086647 -0.041174
vt 0.086647 -0.041174
vt 0.086647 -0.041174
vt 0.086647 -0.041174
vt 0.086647 -0.041174
vt 0.086647 -0.041174
vt 0.086647 -0.041174
vt 0.086647 -0.041174
vt 0.086647 -0.041174
vt 0.086647 -0.041174
vt 0.086647 -0.041174
vt 0.086647 -0.041174
vt 0.086647 -0.041174
vt 0.086647 -0.041174
vt 0.577461 -0.973909
vt 0.550060 -0.973909
vt 0.601780 -0.973909
vt 0.627037 -0.973909
vt 0.493641 -0.973909
vt 0.526929 -0.973909
vt 0.471864 -0.973909
vt 0.447067 -0.973909
vt 0.424217 -0.973909
vt 0.400766 -0.973909
vn -0.6036 -0.7728 -0.1960
vn -0.5632 -0.5550 0.6122
vn -0.6418 -0.5883 0.4920
vn -0.5115 -0.8038 -0.3038
vn -0.4644 -0.5252 0.7131
vn -0.6960 -0.6233 0.3564
vn -0.6744 -0.7350 -0.0706
vn -0.4030 -0.8274 -0.3911
vn -0.2830 -0.8431 -0.4574
vn -0.3503 -0.4992 0.7925
vn -0.1546 -0.8511 -0.5017
vn -0.2247 -0.4780 0.8491
vn -0.0214 -0.8514 -0.5241
vn -0.0915 -0.4614 0.8825
vn 0.1044 -0.8497 -0.5169
vn 0.0315 -0.4645 0.8850
vn 0.2391 -0.8427 -0.4824
vn 0.1756 -0.4755 0.8620
vn -0.7244 -0.6580 0.2058
vn -0.7186 -0.6920 0.0685
vn 0.5332 -0.5239 0.6643
vn 0.4816 -0.8014 -0.3547
vn 0.5790 -0.7729 -0.2595
vn 0.6235 -0.5528 0.5529
vn 0.6576 -0.7403 -0.1395
vn 0.3646 -0.8262 -0.4296
vn 0.3064 -0.4833 0.8201
vn 0.4252 -0.4992 0.7550
vn 0.6911 -0.5855 0.4239
vn 0.7116 -0.7026 -0.0047
vn 0.7369 -0.6615 0.1396
vn 0.7309 -0.6208 0.2835
vn 0.2927 -0.8098 0.5085
vn 0.5126 -0.1004 0.8527
vn -0.1046 -0.8019 0.5882
vn 0.5319 -0.8201 0.2110
vn 0.5634 -0.8208 -0.0941
vn 0.9756 -0.1448 -0.1652
vn 0.9162 -0.1091 0.3856
vn 0.6484 0.6671 0.3667
vn 0.3137 0.6544 0.6880
vn -0.2423 0.9646 0.1038
vn -0.0937 0.9956 -0.0064
vn -0.4244 0.9030 0.0673
vn -0.2358 0.9420 -0.2390
vn 0.0389 0.9674 -0.2504
vn -0.0211 0.9989 -0.0410
vn -0.1534 0.6293 0.7619
vn -0.1373 -0.1003 0.9854
vn -0.4456 -0.7891 0.4227
vn -0.5516 0.5787 0.6007
vn -0.6925 -0.1295 0.7097
vn 0.1457 0.9884 0.0420
vn -0.6098 -0.7855 0.1054
vn -0.9684 -0.1678 0.1845
vn -0.7620 0.5762 0.2954
vn 0.3153 0.9124 0.2609
vn 0.4589 0.8632 0.2103
vn 0.3096 0.9473 -0.0818
vn -0.4553 0.8163 0.3555
vn -0.3071 0.8823 0.3566
vn 0.7173 0.6959 0.0333
vn 0.1580 0.8278 0.5384
vn 0.2851 0.6877 0.6676
vn -0.0206 0.6876 0.7258
vn 0.4890 0.7418 0.4589
vn 0.5371 0.7241 -0.4326
vn 0.6606 -0.1914 -0.7259
vn 0.0890 0.7709 -0.6307
vn 0.0716 -0.2186 -0.9732
vn -0.4566 0.7205 -0.5220
vn -0.5306 -0.2192 -0.8188
vn -0.9222 -0.1972 -0.3327
vn -0.7557 0.6524 -0.0579
vn 0.3082 0.8368 0.4526
vn 0.0062 0.7947 0.6070
vn -0.2855 0.7422 0.6064
vn -0.1547 0.8370 0.5248
vn -0.5740 -0.7938 -0.2010
vn -0.3496 -0.7884 -0.5062
vn 0.0333 -0.8157 -0.5775
vn 0.3782 -0.8095 -0.4491
vn -0.5270 0.7214 0.4492
vn -0.0980 0.9699 0.2230
vn -0.4665 0.8839 0.0332
vn -0.0249 0.9604 -0.2774
vn 0.2599 0.9652 -0.0294
vn -0.3382 0.8909 -0.3032
vn -0.7867 0.5732 -0.2294
vn -0.8736 0.4172 0.2507
vn -0.8937 -0.0738 0.4427
vn -0.6221 0.2048 0.7557
vn -0.7061 -0.5333 0.4658
vn -0.4929 -0.3809 0.7823
vn -0.6595 -0.7249 0.1987
vn -0.3423 -0.7594 0.5533
vn -0.7937 -0.6073 -0.0353
vn -0.6161 -0.5349 0.5782
vn -0.8103 -0.5337 -0.2422
vn -0.4818 -0.5391 0.6908
vn -0.0221 -0.9921 -0.1232
vn -0.1631 -0.5118 -0.8435
vn -0.5607 -0.5480 -0.6207
vn 0.1667 -0.5652 -0.8079
vn 0.5827 0.7711 -0.2568
vn 0.1760 0.7936 -0.5824
vn -0.3933 0.6204 -0.6785
vn -0.7736 0.1870 -0.6055
vn -0.9802 0.1358 -0.1443
vn -0.9196 -0.3787 -0.1045
vn -0.5688 -0.7841 -0.2484
vn -0.3097 -0.7533 -0.5801
vn 0.2302 -0.6918 -0.6844
vn 0.7523 -0.5946 -0.2838
vn 0.6176 -0.7079 -0.3428
vn -0.7032 -0.3961 -0.5905
vn 0.7680 0.4622 -0.4433
vn 0.6803 0.1370 -0.7200
vn 0.3094 0.4245 -0.8509
vn 0.6023 -0.7803 0.1685
vn 0.7679 -0.3948 -0.5044
vn 0.3984 -0.2252 -0.8891
vn -0.1539 -0.5176 -0.8416
vn -0.4002 -0.1100 -0.9098
vn 0.1319 -0.1855 -0.9738
vn -0.1022 0.4298 -0.8971
vn 0.2019 0.3183 0.9262
vn -0.0784 0.7771 0.6245
vn -0.3041 0.4083 0.8607
vn 0.5273 0.3940 0.7528
vn 0.2639 0.8623 0.4323
vn 0.8320 0.4898 0.2606
vn 0.5550 0.7980 0.2347
vn 0.9919 0.1157 -0.0527
vn 0.3635 -0.4850 0.7954
vn 0.4653 -0.5281 0.7104
vn 0.8318 -0.5548 0.0160
vn -0.1161 -0.4639 0.8783
vn -0.0343 -0.6309 0.7751
vn -0.0484 -0.1481 0.9878
vn 0.5248 -0.5398 -0.6582
vn -0.0221 -0.9956 0.0909
vn 0.7084 -0.5548 0.4364
vn 0.3673 -0.5302 0.7642
vn 0.4300 -0.0717 0.9000
vn 0.6437 -0.5845 0.4939
vn 0.9150 -0.3983 0.0638
vn 0.8461 0.0052 0.5331
usemtl blackjack-tex
s 1
f 1/1/1 2/2/2 3/3/3
f 1/1/1 4/4/4 2/2/2
f 4/4/4 5/5/5 2/2/2
f 6/6/6 7/7/7 3/3/3
f 7/7/7 1/1/1 3/3/3
f 5/5/5 4/4/4 8/8/8
f 8/8/8 9/9/9 5/5/5
f 9/9/9 10/10/10 5/5/5
f 10/10/10 9/9/9 11/11/11
f 12/12/12 10/10/10 11/11/11
f 12/12/12 11/11/11 13/13/13
f 14/14/14 12/12/12 13/13/13
f 13/13/13 15/15/15 14/14/14
f 15/15/15 16/16/16 14/14/14
f 15/15/15 17/17/17 16/16/16
f 17/17/17 18/18/18 16/16/16
f 6/6/6 19/19/19 20/20/20
f 6/6/6 20/20/20 7/7/7
f 21/21/21 22/22/22 23/23/23
f 24/24/24 21/21/21 23/23/23
f 24/24/24 23/23/23 25/25/25
f 18/18/18 17/17/17 26/26/26
f 27/27/27 18/18/18 26/26/26
f 27/27/27 26/26/26 22/22/22
f 28/28/28 27/27/27 22/22/22
f 22/22/22 21/21/21 28/28/28
f 29/29/29 24/24/24 25/25/25
f 30/30/30 29/29/29 25/25/25
f 30/30/30 31/31/31 32/32/32
f 30/30/30 32/32/32 29/29/29
f 33/33/33 34/34/34 35/35/35
f 34/34/34 33/33/33 36/36/36
f 37/37/37 38/38/38 36/36/36
f 38/38/38 39/39/39 36/36/36
f 39/39/39 34/34/34 36/36/36
f 39/39/39 40/40/40 34/34/34
f 40/40/40 41/41/41 34/34/34
f 41/41/41 40/40/40 42/42/42
f 43/43/43 41/41/41 42/42/42
f 43/43/43 42/42/42 44/44/44
f 45/45/45 43/43/43 44/44/44
f 46/46/46 45/45/45 44/44/44
f 43/43/43 45/45/45 46/46/46
f 47/47/47 43/43/43 46/46/46
f 41/41/41 43/43/43 47/47/47
f 48/48/48 41/41/41 47/47/47
f 41/41/41 48/48/48 34/34/34
f 48/48/48 49/49/49 34/34/34
f 34/34/34 49/49/49 35/35/35
f 35/35/35 49/49/49 50/50/50
f 51/51/51 52/52/52 49/49/49
f 48/48/48 51/51/51 49/49/49
f 51/51/51 48/48/48 53/53/53
f 48/48/48 47/47/47 53/53/53
f 49/49/49 52/52/52 50/50/50
f 50/50/50 52/52/52 54/54/54
f 52/52/52 55/55/55 54/54/54
f 56/56/56 55/55/55 52/52/52
f 51/51/51 56/56/56 52/52/52
f 56/56/56 51/51/51 57/57/57
f 51/51/51 53/53/53 57/57/57
f 57/57/57 53/53/53 58/58/58
f 53/53/53 59/59/59 58/58/58
f 53/53/53 47/47/47 59/59/59
f 47/47/47 46/46/46 59/59/59
f 46/46/46 44/44/44 59/59/59
f 59/59/59 44/44/44 60/60/60
f 44/44/44 42/42/42 60/60/60
f 42/42/42 61/61/61 60/60/60
f 42/42/42 40/40/40 61/61/61
f 40/40/40 62/62/62 61/61/61
f 62/62/62 40/40/40 39/39/39
f 58/63/58 59/59/59 60/60/60
f 63/64/63 64/65/64 65/66/65
f 60/60/60 65/66/65 64/65/64
f 60/60/60 64/65/64 58/63/58
f 64/65/64 66/67/66 58/63/58
f 38/38/38 62/62/62 39/39/39
f 67/68/67 62/62/62 38/38/38
f 68/69/68 67/68/67 38/38/38
f 69/70/69 67/68/67 68/69/68
f 70/71/70 69/70/69 68/69/68
f 71/72/71 69/70/69 70/71/70
f 72/73/72 71/72/71 70/71/70
f 71/72/71 72/73/72 73/74/73
f 74/75/74 71/72/71 73/74/73
f 71/72/71 74/75/74 75/76/75
f 63/64/63 71/72/71 75/76/75
f 71/72/71 63/64/63 76/77/76
f 76/77/76 63/64/63 65/66/65
f 76/77/76 65/66/65 77/78/77
f 60/60/60 77/78/77 65/66/65
f 78/79/78 77/78/77 60/60/60
f 61/61/61 78/79/78 60/60/60
f 67/68/67 78/79/78 61/61/61
f 62/62/62 67/68/67 61/61/61
f 78/79/78 76/77/76 77/78/77
f 67/68/67 69/70/69 78/79/78
f 69/70/69 76/77/76 78/79/78
f 69/70/69 71/72/71 76/77/76
f 64/65/64 63/64/63 66/67/66
f 63/64/63 75/76/75 66/67/66
f 66/67/66 75/76/75 58/63/58
f 75/76/75 57/80/57 58/63/58
f 75/76/75 74/75/74 57/80/57
f 74/75/74 56/81/56 57/80/57
f 56/81/56 74/75/74 55/82/55
f 74/75/74 73/74/73 55/82/55
f 55/82/55 73/74/73 54/83/54
f 73/74/73 79/84/79 54/83/54
f 73/74/73 72/73/72 79/84/79
f 72/73/72 80/85/80 79/84/79
f 72/73/72 70/71/70 80/85/80
f 70/71/70 81/86/81 80/85/80
f 70/71/70 68/69/68 81/86/81
f 68/69/68 82/87/82 81/86/81
f 82/87/82 68/69/68 37/37/37
f 68/69/68 38/38/38 37/37/37
f 83/88/83 84/89/84 85/90/85
f 86/91/86 84/89/84 87/92/87
f 85/90/85 84/89/84 86/91/86
f 88/93/88 85/90/85 86/91/86
f 89/94/89 85/90/85 88/93/88
f 83/88/83 85/90/85 89/94/89
f 90/95/90 83/88/83 89/94/89
f 83/88/83 90/95/90 91/96/91
f 92/97/92 83/88/83 91/96/91
f 91/96/91 93/98/93 92/97/92
f 93/98/93 94/99/94 92/97/92
f 93/98/93 95/100/95 94/99/94
f 95/100/95 96/101/96 94/99/94
f 95/100/95 97/102/97 96/101/96
f 97/102/97 98/103/98 96/101/96
f 98/103/98 97/102/97 99/104/99
f 100/105/100 98/103/98 99/104/99
f 99/104/99 101/106/101 100/105/100
f 101/106/101 99/104/99 102/107/102
f 99/104/99 97/102/97 102/107/102
f 97/102/97 103/108/103 102/107/102
f 103/108/103 104/109/104 102/107/102
f 95/100/95 93/98/93 91/96/91
f 105/110/105 106/111/106 86/91/86
f 88/93/88 86/91/86 106/111/106
f 107/112/107 88/93/88 106/111/106
f 107/112/107 89/94/89 88/93/88
f 89/94/89 107/112/107 108/113/108
f 89/94/89 108/113/108 90/95/90
f 108/113/108 109/114/109 90/95/90
f 91/96/91 90/95/90 109/114/109
f 110/115/110 91/96/91 109/114/109
f 110/115/110 95/100/95 91/96/91
f 95/100/95 110/115/110 111/116/111
f 95/100/95 111/116/111 97/102/97
f 97/102/97 111/116/111 112/117/112
f 103/108/103 97/102/97 112/117/112
f 103/108/103 112/117/112 113/118/113
f 104/109/104 103/108/103 113/118/113
f 114/119/114 104/109/104 113/118/113
f 104/109/104 114/119/114 102/107/102
f 115/120/115 114/119/114 113/118/113
f 111/116/111 116/121/116 112/117/112
f 111/116/111 110/115/110 116/121/116
f 108/113/108 116/121/116 110/115/110
f 109/114/109 108/113/108 110/115/110
f 117/122/117 106/111/106 105/110/105
f 106/111/106 117/122/117 118/123/118
f 119/124/119 106/111/106 118/123/118
f 106/111/106 119/124/119 107/112/107
f 115/120/115 120/125/120 114/119/114
f 120/125/120 115/120/115 121/126/121
f 122/127/122 121/126/121 115/120/115
f 113/118/113 122/127/122 115/120/115
f 113/118/113 123/128/123 122/127/122
f 112/117/112 123/128/123 113/118/113
f 123/128/123 112/117/112 124/129/124
f 123/128/123 124/129/124 125/130/125
f 124/129/124 126/131/126 125/130/125
f 122/127/122 125/130/125 126/131/126
f 123/128/123 125/130/125 122/127/122
f 127/132/127 128/133/128 129/134/129
f 127/132/127 130/135/130 128/133/128
f 130/135/130 131/136/131 128/133/128
f 130/135/130 132/137/132 131/136/131
f 132/137/132 133/138/133 131/136/131
f 105/110/105 133/138/133 132/137/132
f 105/110/105 132/137/132 134/139/134
f 117/122/117 105/110/105 134/139/134
f 117/122/117 134/139/134 121/126/121
f 118/123/118 117/122/117 121/126/121
f 122/127/122 118/123/118 121/126/121
f 122/127/122 119/124/119 118/123/118
f 119/124/119 122/127/122 126/131/126
f 119/124/119 126/131/126 107/112/107
f 108/113/108 107/112/107 126/131/126
f 124/129/124 108/113/108 126/131/126
f 116/121/116 108/113/108 124/129/124
f 112/117/112 116/121/116 124/129/124
f 135/140/135 136/141/136 137/142/137
f 136/141/136 135/140/135 100/105/100
f 135/140/135 138/143/138 100/105/100
f 138/143/138 98/103/98 100/105/100
f 98/103/98 138/143/138 139/144/139
f 96/101/96 98/103/98 139/144/139
f 139/144/139 140/145/140 96/101/96
f 140/145/140 94/99/94 96/101/96
f 94/99/94 140/145/140 129/134/129
f 92/97/92 94/99/94 129/134/129
f 92/97/92 129/134/129 128/133/128
f 83/88/83 92/97/92 128/133/128
f 83/88/83 128/133/128 131/136/131
f 84/89/84 83/88/83 131/136/131
f 84/89/84 131/136/131 133/138/133
f 87/92/87 84/89/84 133/138/133
f 133/138/133 105/110/105 87/92/87
f 87/92/87 105/110/105 86/91/86
f 114/119/114 141/146/141 102/107/102
f 101/106/101 102/107/102 141/146/141
f 142/147/142 101/106/101 141/146/141
f 101/106/101 142/147/142 100/105/100
f 142/147/142 136/141/136 100/105/100
f 142/147/142 137/142/137 136/141/136
f 137/142/137 142/147/142 141/146/141
f 114/119/114 137/142/137 141/146/141
f 114/119/114 143/148/143 137/142/137
f 114/119/114 120/125/120 143/148/143
f 143/148/143 120/125/120 135/140/135
f 135/140/135 120/125/120 144/149/144
f 138/143/138 135/140/135 144/149/144
f 139/144/139 138/143/138 144/149/144
f 139/144/139 144/149/144 145/150/145
f 140/145/140 139/144/139 145/150/145
f 140/145/140 145/150/145 129/134/129
f 145/150/145 127/132/127 129/134/129
f 143/148/143 135/140/135 137/142/137
f 120/125/120 146/151/146 144/149/144
f 147/152/147 146/151/146 120/125/120
f 147/152/147 120/125/120 121/126/121
f 121/126/121 134/139/134 147/152/147
f 134/139/134 132/137/132 147/152/147
f 132/137/132 148/153/148 147/152/147
f 148/153/148 132/137/132 130/135/130
f 148/153/148 130/135/130 127/132/127
f 145/150/145 148/153/148 127/132/127
f 145/150/145 144/149/144 148/153/148
f 144/149/144 146/151/146 148/153/148
f 147/152/147 148/153/148 146/151/146
f 80/154/80 81/155/81 79/156/79
f 54/157/54 79/156/79 81/155/81
f 37/158/37 54/157/54 81/155/81
f 81/155/81 82/159/82 37/158/37
f 36/160/36 33/161/33 35/162/35
f 36/160/36 35/162/35 50/163/50
f 37/158/37 36/160/36 50/163/50
f 54/157/54 37/158/37 50/163/50
